{
  "accessors": [
    {
      "bufferView": 3,
      "componentType": 5126,
      "count": 5287,
      "max": [
        5.382275581359863,
        3.5814106464385986,
        1.8080847263336182
      ],
      "min": [
        -5.3822760581970215,
        -3.27911639213562,
        -2.4084532260894775
      ],
      "type": "VEC3"
    },
    {
      "bufferView": 3,
      "byteOffset": 63444,
      "componentType": 5126,
      "count": 5287,
      "max": [
        1.0,
        0.9998810291290283,
        0.999935507774353
      ],
      "min": [
        -1.0,
        -0.9999994039535522,
        -0.9999629259109497
      ],
      "type": "VEC3"
    },
    {
      "bufferView": 2,
      "componentType": 5126,
      "count": 5287,
      "max": [
        0.9895448088645935,
        0.9952138662338257
      ],
      "min": [
        0.013575506396591663,
        0.01144266128540039
      ],
      "type": "VEC2"
    },
    {
      "bufferView": 2,
      "byteOffset": 42296,
      "componentType": 5126,
      "count": 5287,
      "max": [
        0.0,
        0.0
      ],
      "min": [
        0.0,
        0.0
      ],
      "type": "VEC2"
    },
    {
      "bufferView": 2,
      "byteOffset": 84592,
      "componentType": 5126,
      "count": 5287,
      "max": [
        1.0,
        0.0
      ],
      "min": [
        0.0,
        0.0
      ],
      "type": "VEC2"
    },
    {
      "bufferView": 1,
      "componentType": 5125,
      "count": 21669,
      "type": "SCALAR"
    },
    {
      "bufferView": 3,
      "byteOffset": 126888,
      "componentType": 5126,
      "count": 5287,
      "max": [
        5.382275581359863,
        3.5814106464385986,
        1.8080847263336182
      ],
      "min": [
        -5.3822760581970215,
        -3.27911639213562,
        -2.4084532260894775
      ],
      "type": "VEC3"
    },
    {
      "bufferView": 3,
      "byteOffset": 190332,
      "componentType": 5126,
      "count": 5287,
      "max": [
        1.0,
        0.9998810291290283,
        0.999935507774353
      ],
      "min": [
        -1.0,
        -0.9999994039535522,
        -0.9999629259109497
      ],
      "type": "VEC3"
    },
    {
      "bufferView": 2,
      "byteOffset": 126888,
      "componentType": 5126,
      "count": 5287,
      "max": [
        0.9895448088645935,
        0.9952138662338257
      ],
      "min": [
        0.013575506396591663,
        0.01144266128540039
      ],
      "type": "VEC2"
    },
    {
      "bufferView": 2,
      "byteOffset": 169184,
      "componentType": 5126,
      "count": 5287,
      "max": [
        0.0,
        0.0
      ],
      "min": [
        0.0,
        0.0
      ],
      "type": "VEC2"
    },
    {
      "bufferView": 2,
      "byteOffset": 211480,
      "componentType": 5126,
      "count": 5287,
      "max": [
        1.0,
        0.0
      ],
      "min": [
        0.0,
        0.0
      ],
      "type": "VEC2"
    },
    {
      "bufferView": 1,
      "byteOffset": 86676,
      "componentType": 5125,
      "count": 21669,
      "type": "SCALAR"
    },
    {
      "bufferView": 3,
      "byteOffset": 253776,
      "componentType": 5126,
      "count": 88,
      "max": [
        1.9845186471939087,
        4.532769203186035,
        2.1277167797088623
      ],
      "min": [
        -1.9845186471939087,
        3.6210639476776123,
        1.2919594049453735
      ],
      "type": "VEC3"
    },
    {
      "bufferView": 3,
      "byteOffset": 254832,
      "componentType": 5126,
      "count": 88,
      "max": [
        0.6871564984321594,
        0.9328983426094055,
        0.9712314009666443
      ],
      "min": [
        -0.6871564984321594,
        -0.4177035093307495,
        0.3210519254207611
      ],
      "type": "VEC3"
    },
    {
      "bufferView": 2,
      "byteOffset": 253776,
      "componentType": 5126,
      "count": 88,
      "max": [
        0.8668414950370789,
        0.922062873840332
      ],
      "min": [
        0.12340346723794937,
        0.019496023654937744
      ],
      "type": "VEC2"
    },
    {
      "bufferView": 2,
      "byteOffset": 254480,
      "componentType": 5126,
      "count": 88,
      "max": [
        0.0,
        1.0
      ],
      "min": [
        0.0,
        1.0
      ],
      "type": "VEC2"
    },
    {
      "bufferView": 2,
      "byteOffset": 255184,
      "componentType": 5126,
      "count": 88,
      "max": [
        1.0,
        0.0
      ],
      "min": [
        1.0,
        0.0
      ],
      "type": "VEC2"
    },
    {
      "bufferView": 1,
      "byteOffset": 173352,
      "componentType": 5125,
      "count": 402,
      "type": "SCALAR"
    },
    {
      "bufferView": 3,
      "byteOffset": 255888,
      "componentType": 5126,
      "count": 120,
      "max": [
        2.2159066200256348,
        5.966470241546631,
        2.16888427734375
      ],
      "min": [
        -2.2159066200256348,
        4.3617024421691895,
        1.0798654556274414
      ],
      "type": "VEC3"
    },
    {
      "bufferView": 3,
      "byteOffset": 257328,
      "componentType": 5126,
      "count": 120,
      "max": [
        0.915742814540863,
        0.8769640326499939,
        0.9531042575836182
      ],
      "min": [
        -0.915742814540863,
        -0.40167275071144104,
        0.39142748713493347
      ],
      "type": "VEC3"
    },
    {
      "bufferView": 2,
      "byteOffset": 255888,
      "componentType": 5126,
      "count": 120,
      "max": [
        0.24663877487182617,
        0.9923452734947205
      ],
      "min": [
        0.003044836688786745,
        0.8876283764839172
      ],
      "type": "VEC2"
    },
    {
      "bufferView": 2,
      "byteOffset": 256848,
      "componentType": 5126,
      "count": 120,
      "max": [
        0.0,
        1.0
      ],
      "min": [
        0.0,
        1.0
      ],
      "type": "VEC2"
    },
    {
      "bufferView": 2,
      "byteOffset": 257808,
      "componentType": 5126,
      "count": 120,
      "max": [
        1.0,
        0.0
      ],
      "min": [
        1.0,
        0.0
      ],
      "type": "VEC2"
    },
    {
      "bufferView": 1,
      "byteOffset": 174960,
      "componentType": 5125,
      "count": 564,
      "type": "SCALAR"
    },
    {
      "bufferView": 3,
      "byteOffset": 258768,
      "componentType": 5126,
      "count": 38,
      "max": [
        2.2047207355499268,
        7.160808086395264,
        2.3860888481140137
      ],
      "min": [
        0.2577904760837555,
        5.360843181610107,
        1.4700316190719604
      ],
      "type": "VEC3"
    },
    {
      "bufferView": 3,
      "byteOffset": 259224,
      "componentType": 5126,
      "count": 38,
      "max": [
        0.6305288672447205,
        0.06946636736392975,
        0.9860938787460327
      ],
      "min": [
        0.15956509113311768,
        -0.37521830201148987,
        0.7439988255500793
      ],
      "type": "VEC3"
    },
    {
      "bufferView": 2,
      "byteOffset": 258768,
      "componentType": 5126,
      "count": 38,
      "max": [
        0.247568279504776,
        0.9835247993469238
      ],
      "min": [
        0.004465244710445404,
        0.7730252742767334
      ],
      "type": "VEC2"
    },
    {
      "bufferView": 2,
      "byteOffset": 259072,
      "componentType": 5126,
      "count": 38,
      "max": [
        0.0,
        1.0
      ],
      "min": [
        0.0,
        1.0
      ],
      "type": "VEC2"
    },
    {
      "bufferView": 2,
      "byteOffset": 259376,
      "componentType": 5126,
      "count": 38,
      "max": [
        1.0,
        0.0
      ],
      "min": [
        1.0,
        0.0
      ],
      "type": "VEC2"
    },
    {
      "bufferView": 1,
      "byteOffset": 177216,
      "componentType": 5125,
      "count": 162,
      "type": "SCALAR"
    },
    {
      "bufferView": 3,
      "byteOffset": 259680,
      "componentType": 5126,
      "count": 38,
      "max": [
        -0.2577904760837555,
        7.160808086395264,
        2.3860888481140137
      ],
      "min": [
        -2.2047207355499268,
        5.360843181610107,
        1.4700316190719604
      ],
      "type": "VEC3"
    },
    {
      "bufferView": 3,
      "byteOffset": 260136,
      "componentType": 5126,
      "count": 38,
      "max": [
        -0.15956531465053558,
        0.06946636736392975,
        0.9860938787460327
      ],
      "min": [
        -0.6305291652679443,
        -0.3752182424068451,
        0.7439987063407898
      ],
      "type": "VEC3"
    },
    {
      "bufferView": 2,
      "byteOffset": 259680,
      "componentType": 5126,
      "count": 38,
      "max": [
        0.2475682497024536,
        0.9835247993469238
      ],
      "min": [
        0.004465222358703613,
        0.7730252742767334
      ],
      "type": "VEC2"
    },
    {
      "bufferView": 2,
      "byteOffset": 259984,
      "componentType": 5126,
      "count": 38,
      "max": [
        0.0,
        1.0
      ],
      "min": [
        0.0,
        1.0
      ],
      "type": "VEC2"
    },
    {
      "bufferView": 2,
      "byteOffset": 260288,
      "componentType": 5126,
      "count": 38,
      "max": [
        1.0,
        0.0
      ],
      "min": [
        1.0,
        0.0
      ],
      "type": "VEC2"
    },
    {
      "bufferView": 1,
      "byteOffset": 177864,
      "componentType": 5125,
      "count": 162,
      "type": "SCALAR"
    },
    {
      "bufferView": 3,
      "byteOffset": 260592,
      "componentType": 5126,
      "count": 150,
      "max": [
        1.109116792678833,
        4.143513202667236,
        2.2919507026672363
      ],
      "min": [
        -1.1091175079345703,
        3.1711032390594482,
        1.6779676675796509
      ],
      "type": "VEC3"
    },
    {
      "bufferView": 3,
      "byteOffset": 262392,
      "componentType": 5126,
      "count": 150,
      "max": [
        0.3571602702140808,
        0.5750283002853394,
        0.9995167255401611
      ],
      "min": [
        -0.35716062784194946,
        -0.7756097912788391,
        -0.9375967979431152
      ],
      "type": "VEC3"
    },
    {
      "bufferView": 2,
      "byteOffset": 260592,
      "componentType": 5126,
      "count": 150,
      "max": [
        0.936332643032074,
        0.9764310121536255
      ],
      "min": [
        0.007274273782968521,
        0.01804715394973755
      ],
      "type": "VEC2"
    },
    {
      "bufferView": 2,
      "byteOffset": 261792,
      "componentType": 5126,
      "count": 150,
      "max": [
        0.0,
        1.0
      ],
      "min": [
        0.0,
        1.0
      ],
      "type": "VEC2"
    },
    {
      "bufferView": 2,
      "byteOffset": 262992,
      "componentType": 5126,
      "count": 150,
      "max": [
        1.0,
        1.0
      ],
      "min": [
        0.0,
        0.0
      ],
      "type": "VEC2"
    },
    {
      "bufferView": 1,
      "byteOffset": 178512,
      "componentType": 5125,
      "count": 732,
      "type": "SCALAR"
    },
    {
      "bufferView": 3,
      "byteOffset": 264192,
      "componentType": 5126,
      "count": 529,
      "max": [
        2.4035847187042236,
        8.828335762023926,
        2.3851590156555176
      ],
      "min": [
        -2.4035847187042236,
        2.982862710952759,
        -2.657259225845337
      ],
      "type": "VEC3"
    },
    {
      "bufferView": 3,
      "byteOffset": 270540,
      "componentType": 5126,
      "count": 529,
      "max": [
        0.9989851117134094,
        0.9987493753433228,
        0.9996498823165894
      ],
      "min": [
        -0.9989851117134094,
        -0.9973856806755066,
        -0.9914672374725342
      ],
      "type": "VEC3"
    },
    {
      "bufferView": 2,
      "byteOffset": 264192,
      "componentType": 5126,
      "count": 529,
      "max": [
        0.992571234703064,
        0.9867830276489258
      ],
      "min": [
        0.00891423225402832,
        0.013617932796478271
      ],
      "type": "VEC2"
    },
    {
      "bufferView": 2,
      "byteOffset": 268424,
      "componentType": 5126,
      "count": 529,
      "max": [
        0.0,
        1.0
      ],
      "min": [
        0.0,
        1.0
      ],
      "type": "VEC2"
    },
    {
      "bufferView": 2,
      "byteOffset": 272656,
      "componentType": 5126,
      "count": 529,
      "max": [
        1.0,
        1.0
      ],
      "min": [
        0.0,
        0.0
      ],
      "type": "VEC2"
    },
    {
      "bufferView": 1,
      "byteOffset": 181440,
      "componentType": 5125,
      "count": 2898,
      "type": "SCALAR"
    },
    {
      "bufferView": 3,
      "byteOffset": 276888,
      "componentType": 5126,
      "count": 2718,
      "max": [
        3.787318229675293,
        10.824955940246582,
        2.889920949935913
      ],
      "min": [
        -3.7296676635742188,
        1.812076210975647,
        -3.951587677001953
      ],
      "type": "VEC3"
    },
    {
      "bufferView": 3,
      "byteOffset": 309504,
      "componentType": 5126,
      "count": 2718,
      "max": [
        0.9999240636825562,
        0.9999873638153076,
        0.9997920393943787
      ],
      "min": [
        -0.9994206428527832,
        -0.9999860525131226,
        -0.9992226362228394
      ],
      "type": "VEC3"
    },
    {
      "bufferView": 2,
      "byteOffset": 276888,
      "componentType": 5126,
      "count": 2718,
      "max": [
        0.9940304160118103,
        0.9926396608352661
      ],
      "min": [
        0.00830078125,
        0.00732421875
      ],
      "type": "VEC2"
    },
    {
      "bufferView": 2,
      "byteOffset": 298632,
      "componentType": 5126,
      "count": 2718,
      "max": [
        0.0,
        1.0
      ],
      "min": [
        0.0,
        1.0
      ],
      "type": "VEC2"
    },
    {
      "bufferView": 2,
      "byteOffset": 320376,
      "componentType": 5126,
      "count": 2718,
      "max": [
        1.0,
        0.0313725471496582
      ],
      "min": [
        0.0,
        0.0
      ],
      "type": "VEC2"
    },
    {
      "bufferView": 1,
      "byteOffset": 193032,
      "componentType": 5125,
      "count": 9417,
      "type": "SCALAR"
    },
    {
      "bufferView": 3,
      "byteOffset": 342120,
      "componentType": 5126,
      "count": 244,
      "max": [
        0.7416755557060242,
        0.7119602560997009,
        -0.26143935322761536
      ],
      "min": [
        -0.6945765018463135,
        -3.120311737060547,
        -3.5353915691375732
      ],
      "type": "VEC3"
    },
    {
      "bufferView": 3,
      "byteOffset": 345048,
      "componentType": 5126,
      "count": 244,
      "max": [
        0.9888157844543457,
        0.9989443421363831,
        0.9997292160987854
      ],
      "min": [
        -0.9999574422836304,
        -0.9978379607200623,
        -0.9993605017662048
      ],
      "type": "VEC3"
    },
    {
      "bufferView": 2,
      "byteOffset": 342120,
      "componentType": 5126,
      "count": 244,
      "max": [
        0.9759871363639832,
        0.9837834239006042
      ],
      "min": [
        0.010309691540896893,
        0.5093269348144531
      ],
      "type": "VEC2"
    },
    {
      "bufferView": 2,
      "byteOffset": 344072,
      "componentType": 5126,
      "count": 244,
      "max": [
        0.0,
        1.0
      ],
      "min": [
        0.0,
        1.0
      ],
      "type": "VEC2"
    },
    {
      "bufferView": 2,
      "byteOffset": 346024,
      "componentType": 5126,
      "count": 244,
      "max": [
        1.0,
        0.0
      ],
      "min": [
        0.0,
        0.0
      ],
      "type": "VEC2"
    },
    {
      "bufferView": 1,
      "byteOffset": 230700,
      "componentType": 5125,
      "count": 1002,
      "type": "SCALAR"
    },
    {
      "bufferView": 5,
      "componentType": 5126,
      "count": 157,
      "max": [
        1.0,
        0.0,
        0.0,
        0.0,
        0.0,
        1.0,
        0.0,
        0.0,
        0.0,
        0.0,
        1.0,
        0.0,
        5.041142463684082,
        2.7555124759674072,
        2.9442312717437744,
        1.0
      ],
      "min": [
        1.0,
        0.0,
        0.0,
        0.0,
        0.0,
        1.0,
        0.0,
        0.0,
        0.0,
        0.0,
        1.0,
        0.0,
        -5.041109085083008,
        -10.202025413513184,
        -2.7847092151641846,
        1.0
      ],
      "type": "MAT4"
    },
    {
      "bufferView": 0,
      "componentType": 5123,
      "count": 5287,
      "type": "VEC4"
    },
    {
      "bufferView": 4,
      "componentType": 5126,
      "count": 5287,
      "max": [
        1.0,
        0.5,
        0.0,
        0.0
      ],
      "min": [
        0.5,
        0.0,
        0.0,
        0.0
      ],
      "type": "VEC4"
    },
    {
      "bufferView": 0,
      "byteOffset": 42296,
      "componentType": 5123,
      "count": 5287,
      "type": "VEC4"
    },
    {
      "bufferView": 4,
      "byteOffset": 84592,
      "componentType": 5126,
      "count": 5287,
      "max": [
        1.0,
        0.5,
        0.0,
        0.0
      ],
      "min": [
        0.5,
        0.0,
        0.0,
        0.0
      ],
      "type": "VEC4"
    },
    {
      "bufferView": 0,
      "byteOffset": 84592,
      "componentType": 5123,
      "count": 88,
      "type": "VEC4"
    },
    {
      "bufferView": 4,
      "byteOffset": 169184,
      "componentType": 5126,
      "count": 88,
      "max": [
        1.0,
        0.0,
        0.0,
        0.0
      ],
      "min": [
        1.0,
        0.0,
        0.0,
        0.0
      ],
      "type": "VEC4"
    },
    {
      "bufferView": 0,
      "byteOffset": 85296,
      "componentType": 5123,
      "count": 120,
      "type": "VEC4"
    },
    {
      "bufferView": 4,
      "byteOffset": 170592,
      "componentType": 5126,
      "count": 120,
      "max": [
        1.0,
        0.0,
        0.0,
        0.0
      ],
      "min": [
        1.0,
        0.0,
        0.0,
        0.0
      ],
      "type": "VEC4"
    },
    {
      "bufferView": 0,
      "byteOffset": 86256,
      "componentType": 5123,
      "count": 38,
      "type": "VEC4"
    },
    {
      "bufferView": 4,
      "byteOffset": 172512,
      "componentType": 5126,
      "count": 38,
      "max": [
        1.0,
        0.0,
        0.0,
        0.0
      ],
      "min": [
        1.0,
        0.0,
        0.0,
        0.0
      ],
      "type": "VEC4"
    },
    {
      "bufferView": 0,
      "byteOffset": 86560,
      "componentType": 5123,
      "count": 38,
      "type": "VEC4"
    },
    {
      "bufferView": 4,
      "byteOffset": 173120,
      "componentType": 5126,
      "count": 38,
      "max": [
        1.0,
        0.0,
        0.0,
        0.0
      ],
      "min": [
        1.0,
        0.0,
        0.0,
        0.0
      ],
      "type": "VEC4"
    },
    {
      "bufferView": 0,
      "byteOffset": 86864,
      "componentType": 5123,
      "count": 150,
      "type": "VEC4"
    },
    {
      "bufferView": 4,
      "byteOffset": 173728,
      "componentType": 5126,
      "count": 150,
      "max": [
        1.0,
        0.0,
        0.0,
        0.0
      ],
      "min": [
        1.0,
        0.0,
        0.0,
        0.0
      ],
      "type": "VEC4"
    },
    {
      "bufferView": 0,
      "byteOffset": 88064,
      "componentType": 5123,
      "count": 529,
      "type": "VEC4"
    },
    {
      "bufferView": 4,
      "byteOffset": 176128,
      "componentType": 5126,
      "count": 529,
      "max": [
        1.0,
        0.0,
        0.0,
        0.0
      ],
      "min": [
        1.0,
        0.0,
        0.0,
        0.0
      ],
      "type": "VEC4"
    },
    {
      "bufferView": 0,
      "byteOffset": 92296,
      "componentType": 5123,
      "count": 2718,
      "type": "VEC4"
    },
    {
      "bufferView": 4,
      "byteOffset": 184592,
      "componentType": 5126,
      "count": 2718,
      "max": [
        1.0,
        0.5,
        0.0,
        0.0
      ],
      "min": [
        0.5,
        0.0,
        0.0,
        0.0
      ],
      "type": "VEC4"
    },
    {
      "bufferView": 0,
      "byteOffset": 114040,
      "componentType": 5123,
      "count": 244,
      "type": "VEC4"
    },
    {
      "bufferView": 4,
      "byteOffset": 228080,
      "componentType": 5126,
      "count": 244,
      "max": [
        1.0,
        0.5,
        0.0,
        0.0
      ],
      "min": [
        0.5,
        0.0,
        0.0,
        0.0
      ],
      "type": "VEC4"
    }
  ],
  "asset": {
    "extras": {
      "author": "ansaldotoys2 (https://sketchfab.com/ansaldotoys2)",
      "license": "CC-BY-4.0 (http://creativecommons.org/licenses/by/4.0/)",
      "source": "https://sketchfab.com/3d-models/agnes-tachyon-chibi-091bbe252eed4a97bb00fe7871ce6451",
      "title": "Agnes Tachyon Chibi"
    },
    "generator": "Sketchfab-17.15.0",
    "version": "2.0"
  },
  "bufferViews": [
    {
      "buffer": 0,
      "byteLength": 115992,
      "byteStride": 8,
      "name": "shortBufferViews",
      "target": 34962
    },
    {
      "buffer": 0,
      "byteLength": 234708,
      "byteOffset": 115992,
      "name": "floatBufferViews",
      "target": 34963
    },
    {
      "buffer": 0,
      "byteLength": 347976,
      "byteOffset": 350700,
      "byteStride": 8,
      "name": "floatBufferViews",
      "target": 34962
    },
    {
      "buffer": 0,
      "byteLength": 347976,
      "byteOffset": 698676,
      "byteStride": 12,
      "name": "floatBufferViews",
      "target": 34962
    },
    {
      "buffer": 0,
      "byteLength": 231984,
      "byteOffset": 1046652,
      "byteStride": 16,
      "name": "floatBufferViews",
      "target": 34962
    },
    {
      "buffer": 0,
      "byteLength": 10048,
      "byteOffset": 1278636,
      "name": "floatBufferViews"
    }
  ],
  "buffers": [
    {
      "byteLength": 1288684,
      "uri": "scene.bin"
    }
  ],
  "images": [
    {
      "uri": "textures/mtl_mbdy1032_00_baseColor.png"
    },
    {
      "uri": "textures/mtl_mchr0001_00_cheek_baseColor.png"
    },
    {
      "uri": "textures/mtl_mchr0001_00_eye_baseColor.png"
    },
    {
      "uri": "textures/mtl_mchr0001_00_mayu_l_baseColor.png"
    },
    {
      "uri": "textures/mtl_mchr0001_00_mouth_baseColor.png"
    },
    {
      "uri": "textures/mtl_mchr0001_00_face0_baseColor.png"
    },
    {
      "uri": "textures/mtl_mchr1032_00_hair_baseColor.png"
    },
    {
      "uri": "textures/mtl_mtail0001_00_baseColor.png"
    }
  ],
  "materials": [
    {
      "doubleSided": true,
      "name": "mtl_mbdy1032_00",
      "pbrMetallicRoughness": {
        "baseColorTexture": {
          "index": 0
        },
        "metallicFactor": 0.0,
        "roughnessFactor": 0.6
      }
    },
    {
      "doubleSided": true,
      "name": "mtl_mbdy1032_00_0",
      "pbrMetallicRoughness": {
        "baseColorTexture": {
          "index": 0
        },
        "metallicFactor": 0.0,
        "roughnessFactor": 0.6
      }
    },
    {
      "alphaMode": "BLEND",
      "doubleSided": true,
      "name": "mtl_mchr0001_00_cheek",
      "pbrMetallicRoughness": {
        "baseColorTexture": {
          "index": 1
        },
        "metallicFactor": 0.0,
        "roughnessFactor": 0.6
      }
    },
    {
      "doubleSided": true,
      "name": "mtl_mchr0001_00_eye",
      "pbrMetallicRoughness": {
        "baseColorTexture": {
          "index": 2
        },
        "metallicFactor": 0.0,
        "roughnessFactor": 0.6
      }
    },
    {
      "alphaMode": "BLEND",
      "doubleSided": true,
      "name": "mtl_mchr0001_00_mayu_l",
      "pbrMetallicRoughness": {
        "baseColorTexture": {
          "index": 3
        },
        "metallicFactor": 0.0,
        "roughnessFactor": 0.6
      }
    },
    {
      "alphaMode": "BLEND",
      "doubleSided": true,
      "name": "mtl_mchr0001_00_mayu_r",
      "pbrMetallicRoughness": {
        "baseColorTexture": {
          "index": 3
        },
        "metallicFactor": 0.0,
        "roughnessFactor": 0.6
      }
    },
    {
      "doubleSided": true,
      "name": "mtl_mchr0001_00_mouth",
      "pbrMetallicRoughness": {
        "baseColorTexture": {
          "index": 4
        },
        "metallicFactor": 0.0,
        "roughnessFactor": 0.6
      }
    },
    {
      "doubleSided": true,
      "name": "mtl_mchr0001_00_face0",
      "pbrMetallicRoughness": {
        "baseColorTexture": {
          "index": 5
        },
        "metallicFactor": 0.0,
        "roughnessFactor": 0.6
      }
    },
    {
      "doubleSided": true,
      "name": "mtl_mchr1032_00_hair",
      "pbrMetallicRoughness": {
        "baseColorTexture": {
          "index": 6
        },
        "metallicFactor": 0.0,
        "roughnessFactor": 0.6
      }
    },
    {
      "doubleSided": true,
      "name": "mtl_mtail0001_00",
      "pbrMetallicRoughness": {
        "baseColorTexture": {
          "index": 7
        },
        "metallicFactor": 0.0,
        "roughnessFactor": 0.6
      }
    }
  ],
  "meshes": [
    {
      "name": "mtl_mbdy1032_00-0_mtl_mbdy1032_00_0",
      "primitives": [
        {
          "attributes": {
            "JOINTS_0": 61,
            "NORMAL": 1,
            "POSITION": 0,
            "TEXCOORD_0": 2,
            "TEXCOORD_1": 3,
            "TEXCOORD_2": 4,
            "TEXCOORD_3": 2,
            "TEXCOORD_4": 2,
            "TEXCOORD_5": 2,
            "TEXCOORD_6": 2,
            "TEXCOORD_7": 2,
            "TEXCOORD_8": 2,
            "TEXCOORD_9": 2,
            "WEIGHTS_0": 62
          },
          "indices": 5,
          "material": 0,
          "mode": 4
        }
      ]
    },
    {
      "name": "mtl_mbdy1032_00-1_mtl_mbdy1032_00_0",
      "primitives": [
        {
          "attributes": {
            "JOINTS_0": 63,
            "NORMAL": 7,
            "POSITION": 6,
            "TEXCOORD_0": 8,
            "TEXCOORD_1": 9,
            "TEXCOORD_2": 10,
            "TEXCOORD_3": 8,
            "TEXCOORD_4": 8,
            "TEXCOORD_5": 8,
            "TEXCOORD_6": 8,
            "TEXCOORD_7": 8,
            "TEXCOORD_8": 8,
            "TEXCOORD_9": 8,
            "WEIGHTS_0": 64
          },
          "indices": 11,
          "material": 1,
          "mode": 4
        }
      ]
    },
    {
      "name": "mtl_mbdy1032_00-2_mtl_mchr0001_00_cheek_0",
      "primitives": [
        {
          "attributes": {
            "JOINTS_0": 65,
            "NORMAL": 13,
            "POSITION": 12,
            "TEXCOORD_0": 14,
            "TEXCOORD_1": 15,
            "TEXCOORD_2": 16,
            "TEXCOORD_3": 14,
            "TEXCOORD_4": 14,
            "TEXCOORD_5": 14,
            "TEXCOORD_6": 14,
            "TEXCOORD_7": 14,
            "TEXCOORD_8": 14,
            "TEXCOORD_9": 14,
            "WEIGHTS_0": 66
          },
          "indices": 17,
          "material": 2,
          "mode": 4
        }
      ]
    },
    {
      "name": "mtl_mbdy1032_00-3_mtl_mchr0001_00_eye_0",
      "primitives": [
        {
          "attributes": {
            "JOINTS_0": 67,
            "NORMAL": 19,
            "POSITION": 18,
            "TEXCOORD_0": 20,
            "TEXCOORD_1": 21,
            "TEXCOORD_2": 22,
            "TEXCOORD_3": 20,
            "TEXCOORD_4": 20,
            "TEXCOORD_5": 20,
            "TEXCOORD_6": 20,
            "TEXCOORD_7": 20,
            "TEXCOORD_8": 20,
            "TEXCOORD_9": 20,
            "WEIGHTS_0": 68
          },
          "indices": 23,
          "material": 3,
          "mode": 4
        }
      ]
    },
    {
      "name": "mtl_mbdy1032_00-4_mtl_mchr0001_00_mayu_l_0",
      "primitives": [
        {
          "attributes": {
            "JOINTS_0": 69,
            "NORMAL": 25,
            "POSITION": 24,
            "TEXCOORD_0": 26,
            "TEXCOORD_1": 27,
            "TEXCOORD_2": 28,
            "TEXCOORD_3": 26,
            "TEXCOORD_4": 26,
            "TEXCOORD_5": 26,
            "TEXCOORD_6": 26,
            "TEXCOORD_7": 26,
            "TEXCOORD_8": 26,
            "TEXCOORD_9": 26,
            "WEIGHTS_0": 70
          },
          "indices": 29,
          "material": 4,
          "mode": 4
        }
      ]
    },
    {
      "name": "mtl_mbdy1032_00-5_mtl_mchr0001_00_mayu_r_0",
      "primitives": [
        {
          "attributes": {
            "JOINTS_0": 71,
            "NORMAL": 31,
            "POSITION": 30,
            "TEXCOORD_0": 32,
            "TEXCOORD_1": 33,
            "TEXCOORD_2": 34,
            "TEXCOORD_3": 32,
            "TEXCOORD_4": 32,
            "TEXCOORD_5": 32,
            "TEXCOORD_6": 32,
            "TEXCOORD_7": 32,
            "TEXCOORD_8": 32,
            "TEXCOORD_9": 32,
            "WEIGHTS_0": 72
          },
          "indices": 35,
          "material": 5,
          "mode": 4
        }
      ]
    },
    {
      "name": "mtl_mbdy1032_00-6_mtl_mchr0001_00_mouth_0",
      "primitives": [
        {
          "attributes": {
            "JOINTS_0": 73,
            "NORMAL": 37,
            "POSITION": 36,
            "TEXCOORD_0": 38,
            "TEXCOORD_1": 39,
            "TEXCOORD_2": 40,
            "TEXCOORD_3": 38,
            "TEXCOORD_4": 38,
            "TEXCOORD_5": 38,
            "TEXCOORD_6": 38,
            "TEXCOORD_7": 38,
            "TEXCOORD_8": 38,
            "TEXCOORD_9": 38,
            "WEIGHTS_0": 74
          },
          "indices": 41,
          "material": 6,
          "mode": 4
        }
      ]
    },
    {
      "name": "mtl_mbdy1032_00-7_mtl_mchr0001_00_face0_0",
      "primitives": [
        {
          "attributes": {
            "JOINTS_0": 75,
            "NORMAL": 43,
            "POSITION": 42,
            "TEXCOORD_0": 44,
            "TEXCOORD_1": 45,
            "TEXCOORD_2": 46,
            "TEXCOORD_3": 44,
            "TEXCOORD_4": 44,
            "TEXCOORD_5": 44,
            "TEXCOORD_6": 44,
            "TEXCOORD_7": 44,
            "TEXCOORD_8": 44,
            "TEXCOORD_9": 44,
            "WEIGHTS_0": 76
          },
          "indices": 47,
          "material": 7,
          "mode": 4
        }
      ]
    },
    {
      "name": "mtl_mbdy1032_00-8_mtl_mchr1032_00_hair_0",
      "primitives": [
        {
          "attributes": {
            "JOINTS_0": 77,
            "NORMAL": 49,
            "POSITION": 48,
            "TEXCOORD_0": 50,
            "TEXCOORD_1": 51,
            "TEXCOORD_2": 52,
            "TEXCOORD_3": 50,
            "TEXCOORD_4": 50,
            "TEXCOORD_5": 50,
            "TEXCOORD_6": 50,
            "TEXCOORD_7": 50,
            "TEXCOORD_8": 50,
            "TEXCOORD_9": 50,
            "WEIGHTS_0": 78
          },
          "indices": 53,
          "material": 8,
          "mode": 4
        }
      ]
    },
    {
      "name": "mtl_mbdy1032_00-9_mtl_mtail0001_00_0",
      "primitives": [
        {
          "attributes": {
            "JOINTS_0": 79,
            "NORMAL": 55,
            "POSITION": 54,
            "TEXCOORD_0": 56,
            "TEXCOORD_1": 57,
            "TEXCOORD_2": 58,
            "TEXCOORD_3": 56,
            "TEXCOORD_4": 56,
            "TEXCOORD_5": 56,
            "TEXCOORD_6": 56,
            "TEXCOORD_7": 56,
            "TEXCOORD_8": 56,
            "TEXCOORD_9": 56,
            "WEIGHTS_0": 80
          },
          "indices": 59,
          "material": 9,
          "mode": 4
        }
      ]
    }
  ],
  "nodes": [
    {
      "children": [
        1
      ],
      "matrix": [
        1.0,
        0.0,
        0.0,
        0.0,
        0.0,
        2.220446049250313e-16,
        -1.0,
        0.0,
        0.0,
        1.0,
        2.220446049250313e-16,
        0.0,
        0.0,
        0.0,
        0.0,
        1.0
      ],
      "name": "Sketchfab_model"
    },
    {
      "children": [
        2
      ],
      "matrix": [
        0.009999999776482582,
        0.0,
        0.0,
        0.0,
        0.0,
        0.0,
        0.009999999776482582,
        0.0,
        0.0,
        -0.009999999776482582,
        0.0,
        0.0,
        0.0,
        0.0,
        0.0,
        1.0
      ],
      "name": "757b7b9509654f5caf8573cd505b6949.fbx"
    },
    {
      "children": [
        3
      ],
      "name": "RootNode"
    },
    {
      "children": [
        4,
        5,
        6,
        7,
        8,
        9,
        10,
        11,
        12,
        13,
        14
      ],
      "name": "Object_3"
    },
    {
      "children": [
        15
      ],
      "name": "_rootJoint"
    },
    {
      "mesh": 0,
      "name": "Object_5",
      "skin": 0
    },
    {
      "mesh": 1,
      "name": "Object_6",
      "skin": 0
    },
    {
      "mesh": 2,
      "name": "Object_7",
      "skin": 0
    },
    {
      "mesh": 3,
      "name": "Object_8",
      "skin": 0
    },
    {
      "mesh": 4,
      "name": "Object_9",
      "skin": 0
    },
    {
      "mesh": 5,
      "name": "Object_10",
      "skin": 0
    },
    {
      "mesh": 6,
      "name": "Object_11",
      "skin": 0
    },
    {
      "mesh": 7,
      "name": "Object_12",
      "skin": 0
    },
    {
      "mesh": 8,
      "name": "Object_13",
      "skin": 0
    },
    {
      "mesh": 9,
      "name": "Object_14",
      "skin": 0
    },
    {
      "children": [
        16,
        170
      ],
      "name": "Position_02"
    },
    {
      "children": [
        17,
        21,
        25,
        29,
        33,
        37,
        41,
        49,
        57,
        163,
        167,
        169
      ],
      "name": "Hip_03"
    },
    {
      "children": [
        18
      ],
      "name": "Sp_Hi_CSkirt0_BL_00_04",
      "translation": [
        0.8278639316558838,
        0.6290903091430664,
        -1.0725266933441162
      ]
    },
    {
      "children": [
        19
      ],
      "name": "Sp_Hi_CSkirt0_BL_01_05",
      "translation": [
        0.23391509056091309,
        -1.0049424171447754,
        -0.4040181636810303
      ]
    },
    {
      "children": [
        20
      ],
      "name": "Sp_Hi_CSkirt0_BL_02_06",
      "translation": [
        0.15962469577789307,
        -0.7149016261100769,
        -0.27570390701293945
      ]
    },
    {
      "name": "Sp_Hi_CSkirt0_BL_03_07",
      "translation": [
        0.14616942405700684,
        -0.8280035257339478,
        -0.25246453285217285
      ]
    },
    {
      "children": [
        22
      ],
      "name": "Sp_Hi_CSkirt0_BR_00_08",
      "translation": [
        -0.8278637528419495,
        0.629096269607544,
        -1.0725266933441162
      ]
    },
    {
      "children": [
        23
      ],
      "name": "Sp_Hi_CSkirt0_BR_01_09",
      "translation": [
        -0.2339147925376892,
        -1.0049488544464111,
        -0.4040200710296631
      ]
    },
    {
      "children": [
        24
      ],
      "name": "Sp_Hi_CSkirt0_BR_02_010",
      "translation": [
        -0.15962517261505127,
        -0.7149017453193665,
        -0.27570676803588867
      ]
    },
    {
      "name": "Sp_Hi_CSkirt0_BR_03_011",
      "translation": [
        -0.14616656303405762,
        -0.8279975652694702,
        -0.25246119499206543
      ]
    },
    {
      "children": [
        26
      ],
      "name": "Sp_Hi_CSkirt0_FLL_00_012",
      "translation": [
        0.950577974319458,
        0.6904199123382568,
        1.1731947660446167
      ]
    },
    {
      "children": [
        27
      ],
      "name": "Sp_Hi_CSkirt0_FLL_01_013",
      "translation": [
        0.41006553173065186,
        -1.028822422027588,
        0.2549370527267456
      ]
    },
    {
      "children": [
        28
      ],
      "name": "Sp_Hi_CSkirt0_FLL_02_014",
      "translation": [
        0.2559586763381958,
        -0.7070837616920471,
        0.15912890434265137
      ]
    },
    {
      "name": "Sp_Hi_CSkirt0_FLL_03_015",
      "translation": [
        0.28147852420806885,
        -0.9601733684539795,
        0.174993634223938
      ]
    },
    {
      "children": [
        30
      ],
      "name": "Sp_Hi_CSkirt0_FRR_00_016",
      "translation": [
        -0.9505776762962341,
        0.6904194355010986,
        1.1731953620910645
      ]
    },
    {
      "children": [
        31
      ],
      "name": "Sp_Hi_CSkirt0_FRR_01_017",
      "translation": [
        -0.41006582975387573,
        -1.0288279056549072,
        0.2549324035644531
      ]
    },
    {
      "children": [
        32
      ],
      "name": "Sp_Hi_CSkirt0_FRR_02_018",
      "translation": [
        -0.2559624910354614,
        -0.7070730328559875,
        0.1591283082962036
      ]
    },
    {
      "name": "Sp_Hi_CSkirt0_FRR_03_019",
      "translation": [
        -0.2814832925796509,
        -0.9601831436157227,
        0.17499351501464844
      ]
    },
    {
      "children": [
        34
      ],
      "name": "Sp_Hi_CSkirt0_L_00_020",
      "translation": [
        1.3831201791763306,
        0.6992165446281433,
        0.06020057201385498
      ]
    },
    {
      "children": [
        35
      ],
      "name": "Sp_Hi_CSkirt0_L_01_021",
      "translation": [
        0.47089505195617676,
        -0.9988753795623779,
        -0.16245758533477783
      ]
    },
    {
      "children": [
        36
      ],
      "name": "Sp_Hi_CSkirt0_L_02_022",
      "translation": [
        0.36825358867645264,
        -0.7209423780441284,
        -0.12704646587371826
      ]
    },
    {
      "name": "Sp_Hi_CSkirt0_L_03_023",
      "translation": [
        0.31181812286376953,
        -0.8953250646591187,
        -0.10757759213447571
      ]
    },
    {
      "children": [
        38
      ],
      "name": "Sp_Hi_CSkirt0_R_00_024",
      "translation": [
        -1.3831204175949097,
        0.6992161870002747,
        0.060200564563274384
      ]
    },
    {
      "children": [
        39
      ],
      "name": "Sp_Hi_CSkirt0_R_01_025",
      "translation": [
        -0.47089481353759766,
        -0.998877763748169,
        -0.16245795786380768
      ]
    },
    {
      "children": [
        40
      ],
      "name": "Sp_Hi_CSkirt0_R_02_026",
      "translation": [
        -0.36825692653656006,
        -0.7209362387657166,
        -0.12704774737358093
      ]
    },
    {
      "name": "Sp_Hi_CSkirt0_R_03_027",
      "translation": [
        -0.31181788444519043,
        -0.8953341245651245,
        -0.10757775604724884
      ]
    },
    {
      "children": [
        42,
        48
      ],
      "name": "Thigh_L_028",
      "translation": [
        0.7170944213867188,
        -0.33245521783828735,
        2.4707627081305616e-15
      ]
    },
    {
      "children": [
        43,
        47
      ],
      "name": "Knee_L_029",
      "translation": [
        0.0,
        -1.1341373920440674,
        0.00503179244697094
      ]
    },
    {
      "children": [
        44,
        46
      ],
      "name": "Ankle_L_030",
      "translation": [
        0.0,
        -1.2889199256896973,
        -0.0854719951748848
      ]
    },
    {
      "children": [
        45
      ],
      "name": "Ankle_L_IK_Handle_031"
    },
    {
      "name": "Ankle_L_IK_Handle_Handle_032"
    },
    {
      "name": "Ankle_L_Handle_033"
    },
    {
      "name": "Knee_L_Handle_034"
    },
    {
      "name": "Thigh_L_Handle_035"
    },
    {
      "children": [
        50,
        56
      ],
      "name": "Thigh_R_036",
      "translation": [
        -0.7170944213867188,
        -0.33245521783828735,
        -1.976610251207744e-15
      ]
    },
    {
      "children": [
        51,
        55
      ],
      "name": "Knee_R_037",
      "translation": [
        0.0,
        -1.1341373920440674,
        0.00503179244697094
      ]
    },
    {
      "children": [
        52,
        54
      ],
      "name": "Ankle_R_038",
      "translation": [
        0.0,
        -1.2889199256896973,
        -0.0854719951748848
      ]
    },
    {
      "children": [
        53
      ],
      "name": "Ankle_R_IK_Handle_039"
    },
    {
      "name": "Ankle_R_IK_Handle_Handle_040"
    },
    {
      "name": "Ankle_R_Handle_041"
    },
    {
      "name": "Knee_R_Handle_042"
    },
    {
      "name": "Thigh_R_Handle_043"
    },
    {
      "children": [
        58,
        162
      ],
      "name": "Waist_044",
      "translation": [
        0.0,
        0.781509280204773,
        -4.573578848976467e-09
      ]
    },
    {
      "children": [
        59,
        102,
        128,
        154,
        156,
        158,
        161
      ],
      "name": "Chest_045",
      "translation": [
        5.365250683509772e-16,
        1.359561800956726,
        -0.09315861761569977
      ]
    },
    {
      "children": [
        60,
        101
      ],
      "name": "Neck_046",
      "translation": [
        4.3383672305649656e-16,
        0.7096254825592041,
        -0.07271555811166763
      ]
    },
    {
      "children": [
        61,
        62,
        63,
        64,
        65,
        66,
        72,
        78,
        80,
        82,
        85,
        88,
        90,
        92,
        94,
        96,
        98,
        100
      ],
      "name": "Head_047",
      "translation": [
        5.662627010631811e-17,
        0.607133150100708,
        0.04970208555459976
      ]
    },
    {
      "name": "M_Cheek_048",
      "translation": [
        9.137359448176292e-16,
        -0.6071338653564453,
        -0.04970204085111618
      ]
    },
    {
      "name": "M_Eye_049",
      "translation": [
        9.137359448176292e-16,
        -0.6071338653564453,
        -0.04970204085111618
      ]
    },
    {
      "name": "M_Mayu_L_050",
      "translation": [
        -5.662584658984449e-17,
        -0.6071338653564453,
        -0.04970204085111618
      ]
    },
    {
      "name": "M_Mayu_R_051",
      "translation": [
        -5.662584658984449e-17,
        -0.6071338653564453,
        -0.04970204085111618
      ]
    },
    {
      "name": "M_Mouth_052",
      "translation": [
        9.137359448176292e-16,
        -0.6071338653564453,
        -0.04970204085111618
      ]
    },
    {
      "children": [
        67,
        70
      ],
      "name": "Sp_He_Ear0_L_00_053",
      "translation": [
        1.5792497396469116,
        5.298884391784668,
        0.043541744351387024
      ]
    },
    {
      "children": [
        68
      ],
      "name": "Ear_01_L_054"
    },
    {
      "children": [
        69
      ],
      "name": "Ear_02_L_055",
      "translation": [
        0.5407510995864868,
        0.7135992050170898,
        0.34593817591667175
      ]
    },
    {
      "name": "Ear_03_L_056",
      "translation": [
        0.5544772148132324,
        0.7317123413085938,
        0.3547190725803375
      ]
    },
    {
      "children": [
        71
      ],
      "name": "Sp_He_Ear0_L_01_057",
      "translation": [
        0.5407510995864868,
        0.7135992050170898,
        0.34593817591667175
      ]
    },
    {
      "name": "Sp_He_Ear0_L_02_058",
      "translation": [
        0.5544772148132324,
        0.7317123413085938,
        0.3547190725803375
      ]
    },
    {
      "children": [
        73,
        76
      ],
      "name": "Sp_He_Ear0_R_00_059",
      "translation": [
        -1.5792487859725952,
        5.298876762390137,
        0.04355745017528534
      ]
    },
    {
      "children": [
        74
      ],
      "name": "Ear_01_R_060"
    },
    {
      "children": [
        75
      ],
      "name": "Ear_02_R_061",
      "translation": [
        -0.5407475233078003,
        0.7136030197143555,
        0.34593695402145386
      ]
    },
    {
      "name": "Ear_03_R_062",
      "translation": [
        -0.5544791221618652,
        0.7317113876342773,
        0.35472139716148376
      ]
    },
    {
      "children": [
        77
      ],
      "name": "Sp_He_Ear0_R_01_063",
      "translation": [
        -0.5407475233078003,
        0.7136030197143555,
        0.34593695402145386
      ]
    },
    {
      "name": "Sp_He_Ear0_R_02_064",
      "translation": [
        -0.5544791221618652,
        0.7317113876342773,
        0.35472139716148376
      ]
    },
    {
      "children": [
        79
      ],
      "name": "Sp_He_Hair0_C_00_065",
      "translation": [
        -0.15675568580627441,
        3.983563184738159,
        2.900881290435791
      ]
    },
    {
      "name": "Sp_He_Hair0_C_01_066",
      "translation": [
        0.5141149759292603,
        -2.640315055847168,
        -0.20633721351623535
      ]
    },
    {
      "children": [
        81
      ],
      "name": "Sp_He_Hair2_C_00_067",
      "translation": [
        0.0,
        5.677638053894043,
        0.943309485912323
      ]
    },
    {
      "name": "Sp_He_Hair2_C_01_068",
      "translation": [
        2.4353764057159424,
        0.03945636749267578,
        -3.2778749465942383
      ]
    },
    {
      "children": [
        83
      ],
      "name": "Sp_He_Hair2_L_00_069",
      "translation": [
        2.3984787464141846,
        1.6779348850250244,
        0.8361665606498718
      ]
    },
    {
      "children": [
        84
      ],
      "name": "Sp_He_Hair2_L_01_070",
      "translation": [
        -0.5556015968322754,
        -1.557992696762085,
        0.1731587052345276
      ]
    },
    {
      "name": "Sp_He_Hair2_L_02_071",
      "translation": [
        -0.849281370639801,
        -1.351444959640503,
        0.1706942319869995
      ]
    },
    {
      "children": [
        86
      ],
      "name": "Sp_He_Hair2_R_00_072",
      "translation": [
        -2.3984785079956055,
        1.677945852279663,
        0.836166262626648
      ]
    },
    {
      "children": [
        87
      ],
      "name": "Sp_He_Hair2_R_01_073",
      "translation": [
        0.511894941329956,
        -1.572906255722046,
        0.173159658908844
      ]
    },
    {
      "name": "Sp_He_Hair2_R_02_074",
      "translation": [
        0.9168083667755127,
        -1.306577205657959,
        0.17069417238235474
      ]
    },
    {
      "children": [
        89
      ],
      "name": "Sp_He_Hair3_L_00_075",
      "translation": [
        2.531466007232666,
        1.3220913410186768,
        -0.0751282200217247
      ]
    },
    {
      "name": "Sp_He_Hair3_L_01_076",
      "translation": [
        -0.5889304876327515,
        -1.9598073959350586,
        0.26200422644615173
      ]
    },
    {
      "children": [
        91
      ],
      "name": "Sp_He_Hair3_R_00_077",
      "translation": [
        -2.531466245651245,
        1.3220961093902588,
        -0.07512807101011276
      ]
    },
    {
      "name": "Sp_He_Hair3_R_01_078",
      "translation": [
        0.5889310836791992,
        -1.959810495376587,
        0.26200422644615173
      ]
    },
    {
      "children": [
        93
      ],
      "name": "Sp_He_Hair4_R_00_079",
      "translation": [
        -3.0137577056884766,
        3.11723256111145,
        -0.855579674243927
      ]
    },
    {
      "name": "Sp_He_Hair4_R_01_080",
      "translation": [
        -0.059168338775634766,
        -2.5564098358154297,
        0.4400790333747864
      ]
    },
    {
      "children": [
        95
      ],
      "name": "Sp_He_Hair5_C_00_081",
      "translation": [
        -0.10437652468681335,
        1.443603277206421,
        -2.3242735862731934
      ]
    },
    {
      "name": "Sp_He_Hair5_C_01_082",
      "translation": [
        0.09776574373245239,
        -1.8654825687408447,
        0.31805944442749023
      ]
    },
    {
      "children": [
        97
      ],
      "name": "Sp_He_Hair5_L_00_083",
      "translation": [
        2.2758166790008545,
        2.2687900066375732,
        -1.3462837934494019
      ]
    },
    {
      "name": "Sp_He_Hair5_L_01_084",
      "translation": [
        0.07932281494140625,
        -2.659851551055908,
        0.1567537784576416
      ]
    },
    {
      "children": [
        99
      ],
      "name": "Sp_He_Hair5_R_00_085",
      "translation": [
        -2.4183664321899414,
        2.2687947750091553,
        -1.346283197402954
      ]
    },
    {
      "name": "Sp_He_Hair5_R_01_086",
      "translation": [
        -0.07932329177856445,
        -2.6598575115203857,
        0.1567537784576416
      ]
    },
    {
      "name": "Head_Handle_087"
    },
    {
      "name": "Neck_Handle_088"
    },
    {
      "children": [
        103,
        127
      ],
      "name": "Shoulder_L_00",
      "translation": [
        0.464473158121109,
        0.6460554599761963,
        -0.07655876129865646
      ]
    },
    {
      "children": [
        104,
        126
      ],
      "name": "Arm_L_01",
      "translation": [
        0.5715084075927734,
        -0.32900190353393555,
        -0.0012777000665664673
      ]
    },
    {
      "children": [
        105,
        108,
        125
      ],
      "name": "Elbow_L_089",
      "translation": [
        1.0651825666427612,
        0.0,
        -0.00859019160270691
      ]
    },
    {
      "children": [
        106
      ],
      "name": "Sp_El_Sleeve0_L_00_090",
      "translation": [
        1.6940383911132813,
        0.0,
        0.013661593198776245
      ]
    },
    {
      "children": [
        107
      ],
      "name": "Sp_El_Sleeve0_L_01_091",
      "translation": [
        0.6577489376068115,
        4.76837158203125e-07,
        -4.470348358154297e-08
      ]
    },
    {
      "name": "Sp_El_Sleeve0_L_02_092",
      "translation": [
        0.5881576538085938,
        -4.76837158203125e-07,
        1.4901161193847656e-08
      ]
    },
    {
      "children": [
        109,
        110,
        114,
        118,
        122,
        124
      ],
      "name": "Wrist_L_093",
      "translation": [
        1.1357731819152832,
        4.76837158203125e-07,
        0.009159445762634277
      ]
    },
    {
      "name": "Hand_Attach_L_094",
      "translation": [
        0.536421537399292,
        -0.35553741455078125,
        -0.20569124817848206
      ]
    },
    {
      "children": [
        111,
        113
      ],
      "name": "Index_01_L_095",
      "translation": [
        0.6540834903717041,
        -0.1092686653137207,
        0.2824503779411316
      ]
    },
    {
      "children": [
        112
      ],
      "name": "Index_03_L_096",
      "translation": [
        0.30216026306152344,
        -0.01714611053466797,
        0.027865096926689148
      ]
    },
    {
      "name": "Index_03_L_Handle_097"
    },
    {
      "name": "Index_01_L_Handle_098"
    },
    {
      "children": [
        115,
        117
      ],
      "name": "Ring_01_L_099",
      "translation": [
        0.5716564655303955,
        -0.09063339233398438,
        -0.16104432940483093
      ]
    },
    {
      "children": [
        116
      ],
      "name": "Ring_03_L_0100",
      "translation": [
        0.3499431610107422,
        -0.046987295150756836,
        -0.055745989084243774
      ]
    },
    {
      "name": "Ring_03_L_Handle_0101"
    },
    {
      "name": "Ring_01_L_Handle_0102"
    },
    {
      "children": [
        119,
        121
      ],
      "name": "Thumb_01_L_0103",
      "translation": [
        0.21118474006652832,
        -0.24654006958007813,
        0.2592352032661438
      ]
    },
    {
      "children": [
        120
      ],
      "name": "Thumb_03_L_0104",
      "translation": [
        0.3376328945159912,
        -0.2486581802368164,
        0.18196435272693634
      ]
    },
    {
      "name": "Thumb_03_L_Handle_0105"
    },
    {
      "name": "Thumb_01_L_Handle_0106"
    },
    {
      "children": [
        123
      ],
      "name": "Wrist_L_IK_Handle_0107"
    },
    {
      "name": "Wrist_L_IK_Handle_Handle_0108"
    },
    {
      "name": "Wrist_L_Handle_0109"
    },
    {
      "name": "Elbow_L_Handle_0111"
    },
    {
      "name": "Arm_L_Handle_0112"
    },
    {
      "name": "Shoulder_L_Handle_0113"
    },
    {
      "children": [
        129,
        153
      ],
      "name": "Shoulder_R_0114",
      "translation": [
        -0.464473158121109,
        0.6460554599761963,
        -0.07655876129865646
      ]
    },
    {
      "children": [
        130,
        152
      ],
      "name": "Arm_R_0115",
      "translation": [
        -0.5715490579605103,
        -0.32906055450439453,
        -0.0012860596179962158
      ]
    },
    {
      "children": [
        131,
        134,
        151
      ],
      "name": "Elbow_R_0116",
      "translation": [
        -1.0651638507843018,
        5.269050598144531e-05,
        -0.0085829496383667
      ]
    },
    {
      "children": [
        132
      ],
      "name": "Sp_El_Sleeve0_R_00_0117",
      "translation": [
        -1.6940112113952637,
        3.337860107421875e-06,
        0.01366230845451355
      ]
    },
    {
      "children": [
        133
      ],
      "name": "Sp_El_Sleeve0_R_01_0118",
      "translation": [
        -0.6578042507171631,
        0.0,
        -2.9802322387695313e-08
      ]
    },
    {
      "name": "Sp_El_Sleeve0_R_02_0119",
      "translation": [
        -0.5881409645080566,
        0.0,
        1.4901161193847656e-08
      ]
    },
    {
      "children": [
        135,
        136,
        140,
        144,
        148,
        150
      ],
      "name": "Wrist_R_0120",
      "translation": [
        -1.135772705078125,
        0.0,
        0.009159475564956665
      ]
    },
    {
      "name": "Hand_Attach_R_0121",
      "translation": [
        -0.5334606170654297,
        -0.35552096366882324,
        -0.2056914120912552
      ]
    },
    {
      "children": [
        137,
        139
      ],
      "name": "Index_01_R_0122",
      "translation": [
        -0.6540400981903076,
        -0.10929489135742188,
        0.2825104892253876
      ]
    },
    {
      "children": [
        138
      ],
      "name": "Index_03_R_0123",
      "translation": [
        -0.3015470504760742,
        -0.017160654067993164,
        0.03401714563369751
      ]
    },
    {
      "name": "Index_03_R_Handle_0124"
    },
    {
      "name": "Index_01_R_Handle_0125"
    },
    {
      "children": [
        141,
        143
      ],
      "name": "Ring_01_R_0126",
      "translation": [
        -0.5716979503631592,
        -0.09063315391540527,
        -0.16109900176525116
      ]
    },
    {
      "children": [
        142
      ],
      "name": "Ring_03_R_0127",
      "translation": [
        -0.3499431610107422,
        -0.04697895050048828,
        -0.05580240488052368
      ]
    },
    {
      "name": "Ring_03_R_Handle_0128"
    },
    {
      "name": "Ring_01_R_Handle_0129"
    },
    {
      "children": [
        145,
        147
      ],
      "name": "Thumb_01_R_0130",
      "translation": [
        -0.21117234230041504,
        -0.24653196334838867,
        0.2592667043209076
      ]
    },
    {
      "children": [
        146
      ],
      "name": "Thumb_03_R_0110",
      "translation": [
        -0.34703636169433594,
        -0.23084557056427002,
        0.18778038024902344
      ]
    },
    {
      "name": "Thumb_03_R_Handle_0132"
    },
    {
      "name": "Thumb_01_R_Handle_0133"
    },
    {
      "children": [
        149
      ],
      "name": "Wrist_R_IK_Handle_0134"
    },
    {
      "name": "Wrist_R_IK_Handle_Handle_0135"
    },
    {
      "name": "Wrist_R_Handle_0136"
    },
    {
      "name": "Elbow_R_Handle_0137"
    },
    {
      "name": "Arm_R_Handle_0138"
    },
    {
      "name": "Shoulder_R_Handle_0139"
    },
    {
      "children": [
        155
      ],
      "name": "Sp_Ch_Bust0_L_00_0140",
      "translation": [
        0.40799739956855774,
        0.09465384483337402,
        0.34347420930862427
      ]
    },
    {
      "name": "Sp_Ch_Bust0_L_01_0141",
      "translation": [
        0.20591327548027039,
        -0.23440861701965332,
        0.38370564579963684
      ]
    },
    {
      "children": [
        157
      ],
      "name": "Sp_Ch_Bust0_R_00_0142",
      "translation": [
        -0.4079970121383667,
        0.0946509838104248,
        0.34347477555274963
      ]
    },
    {
      "name": "Sp_Ch_Bust0_R_01_0143",
      "translation": [
        -0.2059125304222107,
        -0.2344050407409668,
        0.3837055563926697
      ]
    },
    {
      "children": [
        159
      ],
      "name": "Sp_Ch_Tie0_F_00_0144",
      "translation": [
        -3.654247518187874e-15,
        0.5034675598144531,
        0.5863389372825623
      ]
    },
    {
      "children": [
        160
      ],
      "name": "Sp_Ch_Tie0_F_01_0145",
      "translation": [
        -2.487921319240888e-16,
        -0.28407835960388184,
        0.3714723289012909
      ]
    },
    {
      "name": "Sp_Ch_Tie0_F_02_0146",
      "translation": [
        0.0,
        -0.17916440963745117,
        0.2342827320098877
      ]
    },
    {
      "name": "Chest_Handle_0147"
    },
    {
      "name": "Waist_Handle_0148"
    },
    {
      "children": [
        164
      ],
      "name": "Tail_Ctrl_0149",
      "translation": [
        -3.638111964059153e-15,
        0.4949025511741638,
        -1.5223907232284546
      ]
    },
    {
      "children": [
        165
      ],
      "name": "Sp_Hi_Tail0_B_00_0150"
    },
    {
      "children": [
        166
      ],
      "name": "Sp_Hi_Tail0_B_01_0131",
      "translation": [
        -2.171066569524229e-14,
        -0.8025959134101868,
        -0.9521948099136353
      ]
    },
    {
      "name": "Sp_Hi_Tail0_B_02_0151",
      "translation": [
        -9.901476340223869e-17,
        -1.156566858291626,
        -0.46964573860168457
      ]
    },
    {
      "children": [
        168
      ],
      "name": "Hip_IK_Handle_0152"
    },
    {
      "name": "Hip_IK_Handle_Handle_0153"
    },
    {
      "name": "Hip_Handle_0154"
    },
    {
      "name": "Chara_1032_00_Handle_0155"
    }
  ],
  "samplers": [
    {
      "magFilter": 9729,
      "minFilter": 9987,
      "wrapS": 10497,
      "wrapT": 10497
    }
  ],
  "scene": 0,
  "scenes": [
    {
      "name": "Sketchfab_Scene",
      "nodes": [
        0
      ]
    }
  ],
  "skins": [
    {
      "inverseBindMatrices": 60,
      "joints": [
        4,
        15,
        16,
        17,
        18,
        19,
        20,
        21,
        22,
        23,
        24,
        25,
        26,
        27,
        28,
        29,
        30,
        31,
        32,
        33,
        34,
        35,
        36,
        37,
        38,
        39,
        40,
        41,
        42,
        43,
        44,
        45,
        46,
        47,
        48,
        49,
        50,
        51,
        52,
        53,
        54,
        55,
        56,
        57,
        58,
        59,
        60,
        61,
        62,
        63,
        64,
        65,
        66,
        67,
        68,
        69,
        70,
        71,
        72,
        73,
        74,
        75,
        76,
        77,
        78,
        79,
        80,
        81,
        82,
        83,
        84,
        85,
        86,
        87,
        88,
        89,
        90,
        91,
        92,
        93,
        94,
        95,
        96,
        97,
        98,
        99,
        100,
        101,
        102,
        103,
        104,
        105,
        106,
        107,
        108,
        109,
        110,
        111,
        112,
        113,
        114,
        115,
        116,
        117,
        118,
        119,
        120,
        121,
        122,
        123,
        124,
        125,
        126,
        127,
        128,
        129,
        130,
        131,
        132,
        133,
        134,
        135,
        136,
        137,
        138,
        139,
        140,
        141,
        142,
        143,
        144,
        145,
        146,
        147,
        148,
        149,
        150,
        151,
        152,
        153,
        154,
        155,
        156,
        157,
        158,
        159,
        160,
        161,
        162,
        163,
        164,
        165,
        166,
        167,
        168,
        169,
        170
      ],
      "skeleton": 4
    }
  ],
  "textures": [
    {
      "sampler": 0,
      "source": 0
    },
    {
      "sampler": 0,
      "source": 1
    },
    {
      "sampler": 0,
      "source": 2
    },
    {
      "sampler": 0,
      "source": 3
    },
    {
      "sampler": 0,
      "source": 4
    },
    {
      "sampler": 0,
      "source": 5
    },
    {
      "sampler": 0,
      "source": 6
    },
    {
      "sampler": 0,
      "source": 7
    }
  ]
}
